<?xml version="1.0" encoding="utf-8"?>
<!-- Generator: Adobe Illustrator 15.1.0, SVG Export Plug-In . SVG Version: 6.00 Build 0)  -->
<!DOCTYPE svg PUBLIC "-//W3C//DTD SVG 1.1//EN" "http://www.w3.org/Graphics/SVG/1.1/DTD/svg11.dtd">
<svg version="1.1" id="Layer_1" xmlns="http://www.w3.org/2000/svg" xmlns:xlink="http://www.w3.org/1999/xlink" x="0px" y="0px"
	 width="356.916px" height="205.854px" viewBox="0 0 356.916 205.854" enable-background="new 0 0 356.916 205.854"
	 xml:space="preserve">
<g id="Layer_2_1_">
</g>
<g>
	<g>
		<path fill="#20190E" d="M55.423,177.036c0,18.354-11.987,27.582-29.386,27.582c-6.259,0-24.083-3.076-24.083-11.457
			c0-2.865,3.183-6.686,6.154-6.686c4.88,0,10.291,4.773,19.095,4.773c7.426,0,12.943-4.35,12.943-12.096v-3.604h-0.213
			c-3.182,4.666-8.381,7.213-15.382,7.213C8.533,182.764,1,168.653,1,153.483c0-15.381,9.76-29.703,25.143-29.703
			c5.198,0,11.14,2.334,14.004,7.002c0.954-4.029,3.395-6.363,7.638-6.363c4.455,0,7.638,3.395,7.638,8.484V177.036z
			 M28.159,137.781c-7.956,0-11.882,8.277-11.882,15.387c0,8.168,3.926,15.594,11.882,15.594c8.169,0,11.988-7.639,11.988-15.064
			C40.147,146.272,36.54,137.781,28.159,137.781z"/>
		<path fill="#20190E" d="M63.909,108.292c0-5.092,3.182-8.488,7.638-8.488c4.455,0,7.638,3.396,7.638,8.488v65.35
			c0,5.092-3.183,8.486-7.638,8.486c-4.456,0-7.638-3.396-7.638-8.486V108.292z"/>
		<path fill="#20190E" d="M140.184,153.377c0,15.914-10.927,29.387-27.371,29.387c-16.443,0-27.37-13.473-27.37-29.387
			c0-15.488,11.245-29.6,27.37-29.6C128.938,123.78,140.184,137.889,140.184,153.377z M100.72,153.377
			c0,7.318,3.818,15.383,12.093,15.383s12.094-8.063,12.094-15.383c0-7.318-3.712-15.598-12.094-15.598
			C104.433,137.781,100.72,146.059,100.72,153.377z"/>
		<path fill="#20190E" d="M199.168,153.377c0,15.914-10.928,29.387-27.37,29.387c-16.444,0-27.372-13.473-27.372-29.387
			c0-15.488,11.247-29.6,27.372-29.6C187.923,123.78,199.168,137.889,199.168,153.377z M159.704,153.377
			c0,7.318,3.819,15.383,12.095,15.383c8.275,0,12.093-8.063,12.093-15.383c0-7.318-3.713-15.598-12.093-15.598
			C163.417,137.781,159.704,146.059,159.704,153.377z"/>
		<path fill="#20190E" d="M257.834,173.641c0,5.092-3.183,8.486-7.638,8.486c-4.243,0-6.687-2.334-7.639-6.365
			c-2.863,4.668-8.808,7.002-14.004,7.002c-15.385,0-25.145-14.322-25.145-28.75c0-14.852,8.169-30.234,24.611-30.234
			c5.305,0,10.502,1.805,14.533,5.307v-20.793c0-5.092,3.185-8.488,7.639-8.488c4.455,0,7.64,3.396,7.64,8.488L257.834,173.641
			L257.834,173.641z M230.569,137.781c-7.957,0-11.881,8.385-11.881,15.598c0,7.105,3.924,15.383,11.881,15.383
			c8.382,0,11.988-8.486,11.988-15.914C242.558,145.42,238.737,137.781,230.569,137.781z"/>
	</g>
	<circle fill="#BC2226" cx="243.849" cy="29.395" r="28.395"/>
	<path fill="#BC2226" d="M352.854,103.315c0,9.104-7.381,16.484-16.482,16.484s-16.479-7.381-16.479-16.484
		c0-9.1,7.379-16.479,16.479-16.479C345.476,86.836,352.854,94.215,352.854,103.315z"/>
	<circle fill="#F1B71A" cx="255.272" cy="66.928" r="6.528"/>
	<circle fill="#F1B71A" cx="258.373" cy="82.104" r="4.406"/>
	<path fill="#F1B71A" d="M322.504,123.551c0,3.336-2.704,6.041-6.038,6.041s-6.037-2.705-6.037-6.041
		c0-3.332,2.703-6.035,6.037-6.035S322.504,120.219,322.504,123.551z"/>
	<circle fill="#F1B71A" cx="290.847" cy="127.305" r="11.423"/>
	<path fill="#F1B71A" d="M267.804,39.919"/>
</g>
<path fill="#F1B71A" d="M324.938,19.779c-7.403-0.818-30.979-1.513-47.476,22.147c-19,27.25-6.583,54.166-6.583,54.166
	s3.583-13.916,9.583-20.416c4.326-4.688,11.401-6.535,17.527-0.904c6.071,6.834,14.92,11.144,24.778,11.144
	c18.307,0,33.146-14.84,33.146-33.146C355.916,35.533,341.757,21.375,324.938,19.779z"/>
<path fill="#BC2226" d="M299.228,85.28c-3.136-0.347-12.539-0.641-19.522,9.376c-8.043,11.537-2.786,22.933-2.786,22.933
	s1.518-5.892,4.057-8.644c1.832-1.983,4.826-2.768,7.42-0.383c2.57,2.894,6.316,4.717,10.49,4.717
	c7.75,0,14.032-6.282,14.032-14.032C312.917,91.949,306.347,85.955,299.228,85.28z"/>
</svg>
